<svg id="Capa_1" enable-background="new 0 0 512.001 512.001" height="512" viewBox="0 0 512.001 512.001" width="512" xmlns="http://www.w3.org/2000/svg"><g><path d="m445.751 187.707c0-103.502-85.122-187.707-189.751-187.707s-189.751 84.205-189.751 187.707c0 66.067 34.687 124.267 86.988 157.727-.045.477-.073 151.566-.073 151.566 0 5.241 2.735 10.102 7.216 12.822 4.478 2.719 10.054 2.906 14.704.486l80.916-42.075 80.916 42.075c2.173 1.13 4.548 1.691 6.919 1.691 2.702 0 5.399-.729 7.785-2.178 4.48-2.721 7.216-7.581 7.216-12.822 0 0-.027-151.089-.073-151.566 52.301-33.459 86.988-91.659 86.988-157.726zm-116.915 284.587-65.916-34.275c-4.338-2.256-9.502-2.256-13.84 0l-65.916 34.275v-111.268c22.439 9.262 47.043 14.388 72.836 14.388s50.397-5.126 72.836-14.388zm-72.836-126.88c-88.087 0-159.751-70.747-159.751-157.707s71.664-157.707 159.751-157.707 159.751 70.747 159.751 157.707-71.664 157.707-159.751 157.707z"/><path d="m256 56.398c-73.163 0-132.686 58.905-132.686 131.309s59.523 131.309 132.686 131.309 132.686-58.905 132.686-131.309-59.523-131.309-132.686-131.309zm0 232.618c-56.621 0-102.686-45.447-102.686-101.309s46.065-101.309 102.686-101.309 102.686 45.447 102.686 101.309-46.065 101.309-102.686 101.309z"/><path d="m256 120.706h-20.163c-8.284 0-15 6.716-15 15s6.716 15 15 15h5.163v91.562c0 8.284 6.716 15 15 15s15-6.716 15-15v-106.562c0-8.284-6.715-15-15-15z"/></g></svg>